<svg viewBox="0 0 12 9" fill="none" xmlns="http://www.w3.org/2000/svg">
<path d="M11.7251 0.420107C11.6457 0.34675 11.5513 0.288525 11.4472 0.24879C11.3432 0.209056 11.2316 0.188599 11.1189 0.188599C11.0062 0.188599 10.8946 0.209056 10.7905 0.24879C10.6865 0.288525 10.592 0.34675 10.5126 0.420107L4.15139 6.25873L1.47882 3.80118C1.3964 3.72821 1.29911 3.67083 1.1925 3.63232C1.08589 3.59381 0.972054 3.57493 0.857483 3.57674C0.742911 3.57856 0.629852 3.60104 0.524761 3.64291C0.419669 3.68478 0.324603 3.74521 0.244991 3.82075C0.165378 3.89629 0.102779 3.98547 0.0607656 4.08319C0.0187524 4.18091 -0.00185163 4.28525 0.000130571 4.39027C0.00211277 4.49529 0.0266423 4.59892 0.0723181 4.69525C0.117994 4.79158 0.183922 4.87872 0.266338 4.95169L3.54515 7.95709C3.62453 8.03045 3.71897 8.08867 3.82302 8.12841C3.92707 8.16814 4.03867 8.1886 4.15139 8.1886C4.26411 8.1886 4.37572 8.16814 4.47977 8.12841C4.58382 8.08867 4.67826 8.03045 4.75763 7.95709L11.7251 1.57061C11.8118 1.49732 11.881 1.40837 11.9283 1.30937C11.9756 1.21036 12 1.10345 12 0.99536C12 0.887274 11.9756 0.780359 11.9283 0.681353C11.881 0.582347 11.8118 0.493397 11.7251 0.420107Z" fill="currentColor"/>
</svg>
