<svg width="32" height="33" viewBox="0 0 32 33" fill="none" xmlns="http://www.w3.org/2000/svg">
<path d="M31.4664 16.5196C31.4664 25.0899 24.5334 32.0357 15.9832 32.0357C7.43303 32.0357 0.5 25.0899 0.5 16.5196C0.5 7.94926 7.43303 1.00342 15.9832 1.00342C24.5334 1.00342 31.4664 7.94926 31.4664 16.5196Z" stroke="currentColor"/>
<path d="M21.2411 15.5178H10.723C10.5237 15.5178 10.3326 15.6233 10.1917 15.811C10.0508 15.9987 9.97168 16.2533 9.97168 16.5188C9.97168 16.7843 10.0508 17.0389 10.1917 17.2266C10.3326 17.4144 10.5237 17.5198 10.723 17.5198H21.2411C21.4404 17.5198 21.6315 17.4144 21.7724 17.2266C21.9133 17.0389 21.9924 16.7843 21.9924 16.5188C21.9924 16.2533 21.9133 15.9987 21.7724 15.811C21.6315 15.6233 21.4404 15.5178 21.2411 15.5178Z" fill="currentColor"/>
</svg>
