<svg viewBox="0 0 24 24" fill="none" xmlns="http://www.w3.org/2000/svg">
<path fill-rule="evenodd" clip-rule="evenodd" d="M16.5006 16.9996H7.50049V10.4996C7.50049 7.99953 9.50051 5.99951 12.0005 5.99951C14.5006 5.99951 16.5006 7.99953 16.5006 10.4996V16.9996ZM18.5002 16.0002V10.5001C18.5002 7.43006 16.3601 4.86003 13.5001 4.18002V3.50002C13.5001 2.67158 12.8285 2 12.0001 2C11.1717 2 10.5001 2.67158 10.5001 3.50002V4.18002C7.63005 4.86003 5.50002 7.43006 5.50002 10.5001V16.0002L3.5 18.0002V19.0002H20.5002V18.0002L18.5002 16.0002ZM12.0005 22C13.1051 22 14.0005 21.1046 14.0005 20H10.0005C10.0005 21.1046 10.8959 22 12.0005 22Z" fill="#84878B"/>
</svg>
