<svg width="33" height="33" viewBox="0 0 33 33" fill="none" xmlns="http://www.w3.org/2000/svg">
<path d="M32.4244 16.5196C32.4244 25.0899 25.4914 32.0357 16.9412 32.0357C8.39104 32.0357 1.45801 25.0899 1.45801 16.5196C1.45801 7.94926 8.39104 1.00342 16.9412 1.00342C25.4914 1.00342 32.4244 7.94926 32.4244 16.5196Z" stroke="currentColor"/>
<path d="M21.3227 15.8948H17.5663V12.141C17.5663 11.9751 17.5003 11.816 17.3829 11.6986C17.2655 11.5813 17.1062 11.5154 16.9402 11.5154C16.7741 11.5154 16.6149 11.5813 16.4975 11.6986C16.3801 11.816 16.3141 11.9751 16.3141 12.141V15.8948H12.5577C12.3917 15.8948 12.2324 15.9607 12.115 16.0781C11.9976 16.1954 11.9316 16.3545 11.9316 16.5204C11.9316 16.6864 11.9976 16.8455 12.115 16.9628C12.2324 17.0802 12.3917 17.1461 12.5577 17.1461H16.3141V20.8999C16.3141 21.0658 16.3801 21.2249 16.4975 21.3423C16.6149 21.4596 16.7741 21.5255 16.9402 21.5255C17.1062 21.5255 17.2655 21.4596 17.3829 21.3423C17.5003 21.2249 17.5663 21.0658 17.5663 20.8999V17.1461H21.3227C21.4887 17.1461 21.6479 17.0802 21.7654 16.9628C21.8828 16.8455 21.9487 16.6864 21.9487 16.5204C21.9487 16.3545 21.8828 16.1954 21.7654 16.0781C21.6479 15.9607 21.4887 15.8948 21.3227 15.8948Z" fill="currentColor"/>
</svg>
