<svg viewBox="0 0 24 25" fill="none" xmlns="http://www.w3.org/2000/svg">
<path d="M14.002 8.33398H15.002C15.2672 8.33398 15.5215 8.22863 15.7091 8.04109C15.8966 7.85355 16.002 7.5992 16.002 7.33398C16.002 7.06877 15.8966 6.81441 15.7091 6.62688C15.5215 6.43934 15.2672 6.33398 15.002 6.33398H14.002C13.7367 6.33398 13.4824 6.43934 13.2948 6.62688C13.1073 6.81441 13.002 7.06877 13.002 7.33398C13.002 7.5992 13.1073 7.85355 13.2948 8.04109C13.4824 8.22863 13.7367 8.33398 14.002 8.33398ZM14.002 12.334H15.002C15.2672 12.334 15.5215 12.2286 15.7091 12.0411C15.8966 11.8536 16.002 11.5992 16.002 11.334C16.002 11.0688 15.8966 10.8144 15.7091 10.6269C15.5215 10.4393 15.2672 10.334 15.002 10.334H14.002C13.7367 10.334 13.4824 10.4393 13.2948 10.6269C13.1073 10.8144 13.002 11.0688 13.002 11.334C13.002 11.5992 13.1073 11.8536 13.2948 12.0411C13.4824 12.2286 13.7367 12.334 14.002 12.334ZM9.00195 8.33398H10.002C10.2672 8.33398 10.5215 8.22863 10.7091 8.04109C10.8966 7.85355 11.002 7.5992 11.002 7.33398C11.002 7.06877 10.8966 6.81441 10.7091 6.62688C10.5215 6.43934 10.2672 6.33398 10.002 6.33398H9.00195C8.73674 6.33398 8.48238 6.43934 8.29485 6.62688C8.10731 6.81441 8.00195 7.06877 8.00195 7.33398C8.00195 7.5992 8.10731 7.85355 8.29485 8.04109C8.48238 8.22863 8.73674 8.33398 9.00195 8.33398ZM9.00195 12.334H10.002C10.2672 12.334 10.5215 12.2286 10.7091 12.0411C10.8966 11.8536 11.002 11.5992 11.002 11.334C11.002 11.0688 10.8966 10.8144 10.7091 10.6269C10.5215 10.4393 10.2672 10.334 10.002 10.334H9.00195C8.73674 10.334 8.48238 10.4393 8.29485 10.6269C8.10731 10.8144 8.00195 11.0688 8.00195 11.334C8.00195 11.5992 8.10731 11.8536 8.29485 12.0411C8.48238 12.2286 8.73674 12.334 9.00195 12.334ZM21.002 20.334H20.002V3.33398C20.002 3.06877 19.8966 2.81441 19.7091 2.62688C19.5215 2.43934 19.2672 2.33398 19.002 2.33398H5.00195C4.73674 2.33398 4.48238 2.43934 4.29485 2.62688C4.10731 2.81441 4.00195 3.06877 4.00195 3.33398V20.334H3.00195C2.73674 20.334 2.48238 20.4393 2.29485 20.6269C2.10731 20.8144 2.00195 21.0688 2.00195 21.334C2.00195 21.5992 2.10731 21.8536 2.29485 22.0411C2.48238 22.2286 2.73674 22.334 3.00195 22.334H21.002C21.2672 22.334 21.5215 22.2286 21.7091 22.0411C21.8966 21.8536 22.002 21.5992 22.002 21.334C22.002 21.0688 21.8966 20.8144 21.7091 20.6269C21.5215 20.4393 21.2672 20.334 21.002 20.334ZM13.002 20.334H11.002V16.334H13.002V20.334ZM18.002 20.334H15.002V15.334C15.002 15.0688 14.8966 14.8144 14.7091 14.6269C14.5215 14.4393 14.2672 14.334 14.002 14.334H10.002C9.73674 14.334 9.48238 14.4393 9.29485 14.6269C9.10731 14.8144 9.00195 15.0688 9.00195 15.334V20.334H6.00195V4.33398H18.002V20.334Z" fill="#84878B"/>
</svg>
