<svg viewBox="0 0 24 24" fill="none" xmlns="http://www.w3.org/2000/svg">
<path d="M22.8664 19.9507L22.9307 17.6343L10.996 17.2264C10.6258 17.2087 10.258 17.115 9.90358 16.9475C8.36431 16.219 6.76533 15.8496 5.15116 15.8496C4.87721 15.8496 4.60086 15.8604 4.32956 15.8817L1.55908 16.0984L2.49288 20.2324C2.58508 20.6407 2.83986 20.9152 3.12662 20.9152H22.1978C22.5565 20.9152 22.8515 20.4896 22.8664 19.9507Z" fill="#84878B"/>
<path d="M20.722 15.0436V12.5008C20.722 12.1342 20.88 11.8373 21.0751 11.8373H22.0705C22.2656 11.8373 22.4236 11.5403 22.4236 11.1741V10.0882C22.4236 9.72196 22.2656 9.42505 22.0705 9.42505H11.732C11.6118 9.42505 11.4999 9.53966 11.4349 9.72956L10.7723 11.6657H3.39307C3.26117 11.6657 3.15426 11.8264 3.15426 12.0247C3.15426 12.223 3.26117 12.3838 3.39307 12.3838H3.95005V13.3945L1 13.6251L1.40721 15.4278L4.30561 15.201C4.58731 15.1789 4.86923 15.1681 5.15064 15.1681C6.8072 15.1681 8.45571 15.548 10.039 16.2973C10.3534 16.4459 10.6802 16.5296 11.0098 16.5453L17.0174 16.7508L20.7116 16.8771L22.9491 16.9536L23 15.1216L20.722 15.0436ZM5.20258 13.3343C5.18528 13.3342 5.16798 13.3338 5.15068 13.3338C4.90991 13.3338 4.66876 13.3422 4.4277 13.3583V12.3838H5.20261L5.20258 13.3343ZM6.45508 13.413C6.1973 13.3818 5.93891 13.36 5.68017 13.3473V12.3838H6.45508V13.413ZM7.6943 13.5827C7.44022 13.5528 7.18635 13.5186 6.93274 13.4801V12.3838H7.6943V13.5827ZM8.96015 13.6987C8.69727 13.6813 8.43449 13.6599 8.17192 13.6342V12.3838H8.96015V13.6987ZM10.0594 13.7485C9.85216 13.7433 9.64495 13.7357 9.43777 13.7258V12.3838H10.5265L10.0594 13.7485ZM13.0816 13.1515C13.0816 13.2901 13.007 13.4027 12.9148 13.4027H12.167C12.0748 13.4027 12.0002 13.2902 12.0002 13.1515V12.7219C12.0002 12.5833 12.0748 12.4711 12.167 12.4711H12.9148C13.007 12.4711 13.0816 12.5833 13.0816 12.7219V13.1515ZM13.0816 11.3091C13.0816 11.4478 13.007 11.5604 12.9148 11.5604H12.167C12.0748 11.5604 12.0002 11.4478 12.0002 11.3091V10.8796C12.0002 10.7409 12.0748 10.6287 12.167 10.6287H12.9148C13.007 10.6287 13.0816 10.7409 13.0816 10.8796V11.3091ZM14.7946 13.1515C14.7946 13.2901 14.7197 13.4027 14.6275 13.4027H13.8797C13.7875 13.4027 13.7129 13.2902 13.7129 13.1515V12.7219C13.7129 12.5833 13.7875 12.4711 13.8797 12.4711H14.6275C14.7197 12.4711 14.7946 12.5833 14.7946 12.7219V13.1515ZM14.7946 11.3091C14.7946 11.4478 14.7197 11.5604 14.6275 11.5604H13.8797C13.7875 11.5604 13.7129 11.4478 13.7129 11.3091V10.8796C13.7129 10.7409 13.7875 10.6287 13.8797 10.6287H14.6275C14.7197 10.6287 14.7946 10.7409 14.7946 10.8796V11.3091ZM16.5074 13.1515C16.5074 13.2901 16.4325 13.4027 16.3403 13.4027H15.5925C15.5003 13.4027 15.4257 13.2902 15.4257 13.1515V12.7219C15.4257 12.5833 15.5003 12.4711 15.5925 12.4711H16.3403C16.4325 12.4711 16.5074 12.5833 16.5074 12.7219V13.1515ZM16.5074 11.3091C16.5074 11.4478 16.4325 11.5604 16.3403 11.5604H15.5925C15.5003 11.5604 15.4257 11.4478 15.4257 11.3091V10.8796C15.4257 10.7409 15.5003 10.6287 15.5925 10.6287H16.3403C16.4325 10.6287 16.5074 10.7409 16.5074 10.8796V11.3091ZM18.2201 13.1515C18.2201 13.2901 18.1453 13.4027 18.0533 13.4027H17.3053C17.213 13.4027 17.1384 13.2902 17.1384 13.1515V12.7219C17.1384 12.5833 17.213 12.4711 17.3053 12.4711H18.0533C18.1453 12.4711 18.2201 12.5833 18.2201 12.7219V13.1515ZM18.2201 11.3091C18.2201 11.4478 18.1453 11.5604 18.0533 11.5604H17.3053C17.213 11.5604 17.1384 11.4478 17.1384 11.3091V10.8796C17.1384 10.7409 17.213 10.6287 17.3053 10.6287H18.0533C18.1453 10.6287 18.2201 10.7409 18.2201 10.8796V11.3091ZM19.9329 13.1515C19.9329 13.2901 19.8583 13.4027 19.7661 13.4027H19.018C18.9261 13.4027 18.8512 13.2902 18.8512 13.1515V12.7219C18.8512 12.5833 18.9261 12.4711 19.018 12.4711H19.7661C19.8583 12.4711 19.9329 12.5833 19.9329 12.7219V13.1515ZM19.9329 11.3091C19.9329 11.4478 19.8583 11.5604 19.7661 11.5604H19.018C18.9261 11.5604 18.8512 11.4478 18.8512 11.3091V10.8796C18.8512 10.7409 18.9261 10.6287 19.018 10.6287H19.7661C19.8583 10.6287 19.9329 10.7409 19.9329 10.8796V11.3091Z" fill="#84878B"/>
<path d="M18.2028 3H17.2992C17.2413 3 17.1907 3.05869 17.1761 3.14287L16.7702 5.57H15.4878C15.3042 5.57 15.14 5.7415 15.0758 5.99993L14.4048 8.70462C14.4016 8.71784 14.3987 8.73068 14.396 8.7439H20.8585V6.23116C20.8585 5.8661 20.6618 5.57 20.419 5.57H19.5309L19.745 4.34072C19.7661 4.21944 19.7052 4.10088 19.6219 4.10088H18.7183C18.6604 4.10088 18.6098 4.15957 18.5952 4.24374L18.3642 5.56996H17.9362L18.3259 3.23974C18.347 3.11856 18.2862 3 18.2028 3ZM16.5077 7.47733C16.5077 7.61596 16.4328 7.72815 16.3406 7.72815H15.5928C15.5006 7.72815 15.426 7.61596 15.426 7.47733V7.04778C15.426 6.90915 15.5006 6.79653 15.5928 6.79653H16.3406C16.4328 6.79653 16.5077 6.90915 16.5077 7.04778V7.47733ZM18.8515 7.04778C18.8515 6.90915 18.9264 6.79653 19.0183 6.79653H19.7664C19.8586 6.79653 19.9332 6.90915 19.9332 7.04778V7.47733C19.9332 7.61596 19.8586 7.72815 19.7664 7.72815H19.0183C18.9264 7.72815 18.8515 7.61596 18.8515 7.47733V7.04778ZM18.0536 6.79653C18.1456 6.79653 18.2205 6.90915 18.2205 7.04778V7.47733C18.2205 7.61596 18.1456 7.72815 18.0536 7.72815H17.3056C17.2134 7.72815 17.1388 7.61596 17.1388 7.47733V7.04778C17.1388 6.90915 17.2134 6.79653 17.3056 6.79653H18.0536Z" fill="#84878B"/>
</svg>
