<svg viewBox="0 0 20 21" fill="none" xmlns="http://www.w3.org/2000/svg">
<path fill-rule="evenodd" clip-rule="evenodd" d="M6.49506 4.3C6.44489 4.80533 6.01853 5.2 5.5 5.2C4.98147 5.2 4.55511 4.80533 4.50494 4.3H2V5.9H18V4.3H16.3951C16.3449 4.80533 15.9185 5.2 15.4 5.2C14.8815 5.2 14.4551 4.80533 14.4049 4.3H6.49506ZM6.49506 4.3H14.4049H6.49506ZM4.5 2.3V1.5C4.5 0.947715 4.94772 0.5 5.5 0.5C6.05228 0.5 6.5 0.947715 6.5 1.5V2.3H14.4V1.5C14.4 0.947715 14.8477 0.5 15.4 0.5C15.9523 0.5 16.4 0.947715 16.4 1.5V2.3H18.1C19.1493 2.3 20 3.15066 20 4.2V17.5C20 19.1569 18.6569 20.5 17 20.5H3C1.34315 20.5 0 19.1569 0 17.5V4.2C0 3.15066 0.850659 2.3 1.9 2.3H4.5ZM18 7.89844H2V17.4984C2 18.0507 2.44772 18.4984 3 18.4984H17C17.5523 18.4984 18 18.0507 18 17.4984V7.89844ZM4.6 11.5C4.04772 11.5 3.6 11.0523 3.6 10.5C3.6 9.94771 4.04772 9.5 4.6 9.5H8.2C8.75229 9.5 9.2 9.94771 9.2 10.5C9.2 11.0523 8.75229 11.5 8.2 11.5H4.6ZM4.59961 15.1016C4.04732 15.1016 3.59961 14.6538 3.59961 14.1016C3.59961 13.5493 4.04732 13.1016 4.59961 13.1016H11.7996C12.3519 13.1016 12.7996 13.5493 12.7996 14.1016C12.7996 14.6538 12.3519 15.1016 11.7996 15.1016H4.59961Z" fill="currentColor"/>
</svg>
