<svg width="14" height="14" viewBox="0 0 14 14" fill="none" xmlns="http://www.w3.org/2000/svg">
<path fill-rule="evenodd" clip-rule="evenodd" d="M1.55566 3.09172L2.17233 1.53955H11.8279L12.4446 3.09172H1.55566Z" fill="#84878B"/>
<path fill-rule="evenodd" clip-rule="evenodd" d="M11.2778 1.01449C11.7911 1.01449 12.2267 1.35536 12.3822 1.8342L14 6.69565V13.1884C14 13.6348 13.65 14 13.2222 14H12.4444C12.0167 14 11.6667 13.6348 11.6667 13.1884V12.3768H2.33333V13.1884C2.33333 13.6348 1.98333 14 1.55556 14H0.777778C0.35 14 0 13.6348 0 13.1884V6.69565L1.61778 1.8342C1.78111 1.35536 2.20889 1.01449 2.72222 1.01449H4.66667C4.66667 0.454204 5.12087 0 5.68116 0H8.31884C8.87913 0 9.33333 0.454204 9.33333 1.01449H11.2778ZM1.55552 8.72428C1.55552 9.3979 2.07663 9.94167 2.72218 9.94167C3.36774 9.94167 3.88885 9.3979 3.88885 8.72428C3.88885 8.05065 3.36774 7.50688 2.72218 7.50688C2.07663 7.50688 1.55552 8.05065 1.55552 8.72428ZM11.2777 9.94167C10.6321 9.94167 10.111 9.3979 10.111 8.72428C10.111 8.05065 10.6321 7.50688 11.2777 7.50688C11.9233 7.50688 12.4444 8.05065 12.4444 8.72428C12.4444 9.3979 11.9233 9.94167 11.2777 9.94167ZM2.72218 2.23228L1.55552 5.88445H12.4444L11.2777 2.23228H2.72218Z" fill="#84878B"/>
</svg>
