<svg width="22" height="22" viewBox="0 0 22 22" fill="none" xmlns="http://www.w3.org/2000/svg">
<path d="M11 1.83331C9.02467 1.83331 7.13026 2.60593 5.73351 3.98119C4.33675 5.35645 3.55206 7.22171 3.55206 9.16662C3.55206 14.1166 10.1155 19.7083 10.3948 19.9466C10.5635 20.0886 10.7781 20.1666 11 20.1666C11.2219 20.1666 11.4365 20.0886 11.6051 19.9466C11.931 19.7083 18.4479 14.1166 18.4479 9.16662C18.4479 7.22171 17.6632 5.35645 16.2665 3.98119C14.8697 2.60593 12.9753 1.83331 11 1.83331V1.83331ZM11 18.0124C9.01697 16.1791 5.41404 12.2283 5.41404 9.16662C5.41404 7.70794 6.00256 6.30899 7.05013 5.27755C8.09769 4.2461 9.5185 3.66664 11 3.66664C12.4815 3.66664 13.9023 4.2461 14.9498 5.27755C15.9974 6.30899 16.5859 7.70794 16.5859 9.16662C16.5859 12.2283 12.983 16.1883 11 18.0124ZM11 5.49997C10.2635 5.49997 9.54346 5.71501 8.93106 6.11791C8.31866 6.52081 7.84135 7.09346 7.55949 7.76345C7.27763 8.43345 7.20389 9.17069 7.34758 9.88195C7.49127 10.5932 7.84594 11.2465 8.36674 11.7593C8.88755 12.2721 9.55109 12.6213 10.2735 12.7628C10.9958 12.9043 11.7446 12.8317 12.4251 12.5542C13.1055 12.2766 13.6871 11.8067 14.0963 11.2037C14.5055 10.6007 14.7239 9.89182 14.7239 9.16662C14.7239 8.19416 14.3316 7.26154 13.6332 6.57391C12.9348 5.88627 11.9876 5.49997 11 5.49997ZM11 10.9999C10.6317 10.9999 10.2717 10.8924 9.96552 10.691C9.65932 10.4895 9.42066 10.2032 9.27973 9.86821C9.13881 9.53321 9.10193 9.16459 9.17378 8.80896C9.24562 8.45333 9.42296 8.12666 9.68336 7.87026C9.94376 7.61387 10.2755 7.43926 10.6367 7.36852C10.9979 7.29778 11.3723 7.33409 11.7125 7.47285C12.0528 7.61161 12.3436 7.84659 12.5482 8.14808C12.7528 8.44957 12.862 8.80402 12.862 9.16662C12.862 9.65285 12.6658 10.1192 12.3166 10.463C11.9674 10.8068 11.4938 10.9999 11 10.9999Z" fill="currentColor"/>
</svg>
