<svg viewBox="0 0 14 14" fill="none" xmlns="http://www.w3.org/2000/svg">
<path d="M11.5 0C11.3143 0 11.1363 0.0737498 11.005 0.205025C10.8737 0.336301 10.8 0.514348 10.8 0.7V4.522L10.1 4.991V0.7C10.1 0.514348 10.0263 0.336301 9.89497 0.205025C9.7637 0.0737498 9.58565 0 9.4 0C9.21435 0 9.0363 0.0737498 8.90503 0.205025C8.77375 0.336301 8.7 0.514348 8.7 0.7V4.991L8 4.522V0.7C8 0.514348 7.92625 0.336301 7.79497 0.205025C7.6637 0.0737498 7.48565 0 7.3 0C7.11435 0 6.9363 0.0737498 6.80503 0.205025C6.67375 0.336301 6.6 0.514348 6.6 0.7V4.9C6.6006 5.0153 6.62966 5.12866 6.68462 5.23002C6.73957 5.33137 6.81871 5.41759 6.915 5.481L8.7 6.678V13.3C8.7 13.4857 8.77375 13.6637 8.90503 13.795C9.0363 13.9263 9.21435 14 9.4 14C9.58565 14 9.7637 13.9263 9.89497 13.795C10.0263 13.6637 10.1 13.4857 10.1 13.3V6.678L11.885 5.481C11.9813 5.41759 12.0604 5.33137 12.1154 5.23002C12.1703 5.12866 12.1994 5.0153 12.2 4.9V0.7C12.2 0.514348 12.1263 0.336301 11.995 0.205025C11.8637 0.0737498 11.6857 0 11.5 0ZM4.5 0C3.57174 0 2.6815 0.368749 2.02513 1.02513C1.36875 1.6815 1 2.57174 1 3.5V7.7C1 7.88565 1.07375 8.0637 1.20503 8.19497C1.3363 8.32625 1.51435 8.4 1.7 8.4H3.8V13.3C3.8 13.4857 3.87375 13.6637 4.00503 13.795C4.1363 13.9263 4.31435 14 4.5 14C4.68565 14 4.8637 13.9263 4.99497 13.795C5.12625 13.6637 5.2 13.4857 5.2 13.3V0.7C5.2 0.514348 5.12625 0.336301 4.99497 0.205025C4.8637 0.0737498 4.68565 0 4.5 0ZM3.8 7H2.4V3.5C2.39977 3.06554 2.5343 2.64171 2.78504 2.28691C3.03578 1.93211 3.39039 1.66382 3.8 1.519V7Z" fill="#84878B"/>
</svg>
