<svg viewBox="0 0 18 18" fill="none" xmlns="http://www.w3.org/2000/svg">
<path d="M1.50455 15.6635L2.00146 15.7189C2.14178 14.4611 2.6227 13.2645 3.39325 12.2567C4.16381 11.2489 5.19519 10.4676 6.37765 9.99648L7.18598 9.67441L6.5007 9.13821C5.84354 8.62401 5.3643 7.91925 5.12913 7.12225C4.89397 6.32528 4.91443 5.47528 5.18769 4.69037C5.46095 3.90542 5.97361 3.22421 6.65483 2.74184C7.33608 2.25944 8.15192 2 8.98882 2C9.82572 2 10.6416 2.25944 11.3228 2.74184C12.004 3.22421 12.5167 3.90542 12.79 4.69037C13.0632 5.47528 13.0837 6.32528 12.8485 7.12225C12.6133 7.91925 12.1341 8.62401 11.4769 9.13821L11.7851 9.53199L11.6015 9.99708C12.7889 10.4657 13.8253 11.2468 14.5998 12.2561C15.3741 13.2651 15.8575 14.4644 15.9987 15.7253C16.0054 15.7896 15.9865 15.8544 15.9452 15.9057C15.9081 15.9519 15.8554 15.9838 15.7964 15.9955L15.7495 15.9955L15.7465 15.9955C15.683 15.9959 15.622 15.9728 15.5753 15.9314C15.5286 15.8901 15.4995 15.8336 15.4928 15.7731L15.4927 15.7722C15.3133 14.184 14.5519 12.7178 13.3547 11.6535C12.1576 10.5892 10.6086 10.0012 9.0039 10.0012C7.39914 10.0012 5.8502 10.5892 4.6531 11.6535C3.45592 12.7178 2.6945 14.184 2.51511 15.7722L2.51498 15.7734C2.50767 15.8395 2.47416 15.9008 2.42085 15.9433C2.36743 15.9859 2.29866 16.006 2.22972 15.9984C2.1608 15.9909 2.09841 15.9565 2.05593 15.9038C2.0349 15.8777 2.01937 15.8479 2.01008 15.8162C2.00079 15.7844 1.99789 15.7512 2.00152 15.7184L1.50455 15.6635ZM1.50455 15.6635C1.65496 14.3152 2.17044 13.0328 2.99604 11.953C3.70846 11.0213 4.62876 10.2705 5.68125 9.75798L15.7495 16.4955C15.5632 16.4966 15.3831 16.429 15.2439 16.3058C15.1047 16.1826 15.0163 16.0125 14.9958 15.8284C14.8303 14.3631 14.1278 13.0098 13.0225 12.0271C11.9171 11.0444 10.4865 10.5012 9.0039 10.5012C7.52128 10.5012 6.09064 11.0444 4.98531 12.0271C3.87998 13.0098 3.17745 14.3631 3.01195 15.8284C2.98996 16.0272 2.88947 16.2091 2.73257 16.3342C2.57568 16.4593 2.37524 16.5173 2.17534 16.4955C1.97545 16.4736 1.79248 16.3737 1.66668 16.2176C1.60439 16.1404 1.55801 16.0517 1.53019 15.9566C1.50237 15.8615 1.49366 15.7619 1.50455 15.6635ZM7.03715 8.91094C7.61509 9.29498 8.29427 9.4998 8.98882 9.4998C9.92012 9.4998 10.8138 9.1319 11.4732 8.47615C12.1327 7.82031 12.5036 6.93022 12.5036 6.00153C12.5036 5.30902 12.2971 4.63229 11.9106 4.05693C11.524 3.48161 10.9749 3.03361 10.333 2.76917C9.69108 2.50475 8.9849 2.4356 8.30363 2.57037C7.62235 2.70514 6.99618 3.03787 6.50445 3.5269C6.01269 4.01597 5.67748 4.6394 5.54165 5.31853C5.40581 5.99767 5.47555 6.70159 5.74193 7.34116C6.0083 7.98069 6.45919 8.52687 7.03715 8.91094Z" fill="currentColor" stroke="currentColor"/>
</svg>
