<svg width="24" height="24" viewBox="0 0 24 25" fill="none" xmlns="http://www.w3.org/2000/svg">
<path d="M22.1008 14.6638C22.5326 14.2332 22.8268 13.6841 22.9462 13.0861C23.0657 12.4882 23.0049 11.8682 22.7717 11.3048C22.5384 10.7414 22.1432 10.2599 21.6361 9.92129C21.1289 9.58271 20.5327 9.40229 19.9229 9.40288L15.949 9.40288L12.8872 3.28641C12.8034 3.12582 12.6776 2.99101 12.5232 2.89636C12.3687 2.80171 12.1915 2.75078 12.0104 2.74901L8.65869 2.73486C8.49828 2.73579 8.34045 2.77529 8.19852 2.85003C8.05659 2.92477 7.93472 3.03255 7.8432 3.16429C7.75168 3.29603 7.69319 3.44785 7.67267 3.60694C7.65215 3.76603 7.67021 3.92772 7.72531 4.07837L9.72642 9.40288L6.04947 9.40288L5.44842 7.58562C5.38853 7.38441 5.26683 7.20715 5.10058 7.07897C4.93432 6.95079 4.73194 6.87818 4.52212 6.87144L1.99067 6.89972C1.72649 6.90051 1.47335 7.0058 1.28654 7.19261C1.09973 7.37942 0.994438 7.63256 0.993652 7.89674L0.993653 17.075C0.994439 17.3392 1.09973 17.5923 1.28654 17.7791C1.47335 17.9659 1.72649 18.0712 1.99067 18.072L4.52211 18.1003C4.73327 18.1014 4.93935 18.0356 5.11083 17.9124C5.28231 17.7892 5.41039 17.6149 5.47671 17.4144L6.07775 15.5971L9.75471 15.5971L7.75359 20.9216C7.69849 21.0723 7.68044 21.234 7.70095 21.3931C7.72147 21.5522 7.77996 21.704 7.87148 21.8357C7.963 21.9675 8.08487 22.0752 8.22681 22.15C8.36874 22.2247 8.52657 22.2642 8.68697 22.2652H12.0245C12.2056 22.2634 12.3829 22.2125 12.5373 22.1178C12.6917 22.0232 12.8176 21.8883 12.9013 21.7278L15.9631 15.6113L19.9229 15.5689C20.3278 15.5701 20.7289 15.4907 21.1029 15.3353C21.4768 15.1799 21.816 14.9516 22.1008 14.6638ZM19.9158 13.5677L15.3338 13.5677C15.1527 13.5695 14.9754 13.6204 14.821 13.7151C14.6666 13.8097 14.5407 13.9446 14.457 14.1051L11.4023 20.2145L10.1295 20.2145L12.1235 14.8971C12.1802 14.7461 12.1995 14.5837 12.1798 14.4236C12.1601 14.2635 12.102 14.1106 12.0104 13.9779C11.9179 13.8441 11.7943 13.735 11.6501 13.6598C11.5059 13.5846 11.3456 13.5458 11.1831 13.5465L5.32822 13.5748C5.11914 13.5747 4.91529 13.6401 4.74533 13.7619C4.57537 13.8837 4.44784 14.0556 4.38069 14.2536L3.77258 16.0214L2.98062 16.0214L2.98769 8.90083L3.77258 8.95033L4.37362 10.7676C4.44077 10.9656 4.5683 11.1376 4.73826 11.2593C4.90822 11.3811 5.11207 11.4465 5.32115 11.4464L11.1901 11.4323C11.352 11.4329 11.5116 11.3942 11.6552 11.3196C11.7988 11.245 11.9222 11.1366 12.0147 11.0037C12.1072 10.8709 12.1661 10.7176 12.1862 10.557C12.2064 10.3964 12.1873 10.2333 12.1306 10.0817L10.1083 4.73598L11.3811 4.73598L14.4358 10.8454C14.5195 11.006 14.6454 11.1408 14.7998 11.2354C14.9542 11.3301 15.1314 11.381 15.3126 11.3828L19.8946 11.3828C20.0371 11.3812 20.1785 11.4081 20.3105 11.4619C20.4425 11.5157 20.5624 11.5953 20.6632 11.6961C20.7639 11.7969 20.8436 11.9168 20.8974 12.0488C20.9512 12.1807 20.9781 12.3221 20.9765 12.4647C20.9819 12.6067 20.957 12.7484 20.9033 12.8801C20.8497 13.0117 20.7685 13.1305 20.6654 13.2283C20.5694 13.332 20.4536 13.4154 20.3249 13.4737C20.1962 13.532 20.0571 13.564 19.9158 13.5677Z" fill="#84878B"/>
</svg>
