<svg viewBox="0 0 14 14" fill="none" xmlns="http://www.w3.org/2000/svg">
<path d="M12.7225 1.15421C12.6354 1.0884 12.5335 1.04167 12.4245 1.01743C12.3155 0.993196 12.202 0.992081 12.0925 1.01417C11.2911 1.17098 10.4638 1.17297 9.66147 1.02004C8.85919 0.867099 8.09893 0.562465 7.4275 0.124888C7.30195 0.0435733 7.1528 0 7 0C6.8472 0 6.69805 0.0435733 6.5725 0.124888C5.90107 0.562465 5.14081 0.867099 4.33853 1.02004C3.53625 1.17297 2.70893 1.17098 1.9075 1.01417C1.79796 0.992081 1.6845 0.993196 1.57548 1.01743C1.46646 1.04167 1.36464 1.0884 1.2775 1.15421C1.19049 1.22011 1.12039 1.30338 1.07237 1.3979C1.02435 1.49241 0.999623 1.59577 1 1.70038V6.91701C0.999338 7.92095 1.25558 8.91051 1.7474 9.80329C2.23923 10.6961 2.95239 11.4662 3.8275 12.0496L6.565 13.8702C6.69202 13.9546 6.84407 14 7 14C7.15593 14 7.30798 13.9546 7.435 13.8702L10.1725 12.0496C11.0476 11.4662 11.7608 10.6961 12.2526 9.80329C12.7444 8.91051 13.0007 7.92095 13 6.91701V1.70038C13.0004 1.59577 12.9756 1.49241 12.9276 1.3979C12.8796 1.30338 12.8095 1.22011 12.7225 1.15421ZM11.5 6.91701C11.5006 7.69759 11.3015 8.467 10.9192 9.16123C10.537 9.85546 9.98272 10.4544 9.3025 10.9083L7 12.4417L4.6975 10.9083C4.01728 10.4544 3.46299 9.85546 3.08076 9.16123C2.69854 8.467 2.49943 7.69759 2.5 6.91701V2.50563C4.07232 2.63128 5.64703 2.29068 7 1.53233C8.35297 2.29068 9.92768 2.63128 11.5 2.50563V6.91701ZM8.155 5.31351L6.1375 7.2041L5.47 6.57391C5.32877 6.44205 5.13723 6.36798 4.9375 6.36798C4.73778 6.36798 4.54623 6.44205 4.405 6.57391C4.26377 6.70576 4.18443 6.88459 4.18443 7.07106C4.18443 7.25753 4.26377 7.43636 4.405 7.56822L5.605 8.68857C5.67472 8.7542 5.75767 8.80629 5.84907 8.84184C5.94046 8.87739 6.03849 8.89569 6.1375 8.89569C6.23651 8.89569 6.33454 8.87739 6.42593 8.84184C6.51733 8.80629 6.60028 8.7542 6.67 8.68857L9.25 6.30082C9.39123 6.16897 9.47057 5.99013 9.47057 5.80366C9.47057 5.6172 9.39123 5.43836 9.25 5.30651C9.10877 5.17466 8.91722 5.10058 8.7175 5.10058C8.51777 5.10058 8.32623 5.17466 8.185 5.30651L8.155 5.31351Z" fill="#84878B"/>
</svg>
