<svg viewBox="0 0 18 18" fill="none" xmlns="http://www.w3.org/2000/svg">
<path d="M5.5 7C5.36739 7 5.24021 7.05268 5.14645 7.14645C5.05268 7.24021 5 7.36739 5 7.5V10.5C5 10.6326 5.05268 10.7598 5.14645 10.8536C5.24021 10.9473 5.36739 11 5.5 11H12.5C12.6326 11 12.7598 10.9473 12.8536 10.8536C12.9473 10.7598 13 10.6326 13 10.5V7.5C13 7.36739 12.9473 7.24021 12.8536 7.14645C12.7598 7.05268 12.6326 7 12.5 7H11V6H11.5C11.6326 6 11.7598 5.94732 11.8536 5.85355C11.9473 5.75979 12 5.63261 12 5.5C12 5.36739 11.9473 5.24021 11.8536 5.14645C11.7598 5.05268 11.6326 5 11.5 5H6.5C6.36739 5 6.24022 5.05268 6.14645 5.14645C6.05268 5.24021 6 5.36739 6 5.5C6 5.63261 6.05268 5.75979 6.14645 5.85355C6.24022 5.94732 6.36739 6 6.5 6H7V7H5.5ZM6 8H7V10H6V8ZM12 8V10H11V8H12ZM10 6V10H9.5V9.5C9.5 9.36739 9.44732 9.24021 9.35355 9.14645C9.25979 9.05268 9.13261 9 9 9C8.86739 9 8.74022 9.05268 8.64645 9.14645C8.55268 9.24021 8.5 9.36739 8.5 9.5V10H8V6H10Z" fill="currentColor"/>
<path d="M16.5 12H4.5C4.36739 12 4.24022 12.0527 4.14645 12.1464C4.05268 12.2402 4 12.3674 4 12.5C4 12.6326 4.05268 12.7598 4.14645 12.8536C4.24022 12.9473 4.36739 13 4.5 13H16V13.5C16 13.6326 15.9473 13.7598 15.8536 13.8536C15.7598 13.9473 15.6326 14 15.5 14H2.5C2.36739 14 2.24021 13.9473 2.14645 13.8536C2.05268 13.7598 2 13.6326 2 13.5V13H2.5C2.63261 13 2.75979 12.9473 2.85355 12.8536C2.94732 12.7598 3 12.6326 3 12.5V4.5C3 4.36739 3.05268 4.24021 3.14645 4.14645C3.24022 4.05268 3.36739 4 3.5 4H14.5C14.6326 4 14.7598 4.05268 14.8536 4.14645C14.9473 4.24021 15 4.36739 15 4.5V10.5C15 10.6326 15.0527 10.7598 15.1464 10.8536C15.2402 10.9473 15.3674 11 15.5 11C15.6326 11 15.7598 10.9473 15.8536 10.8536C15.9473 10.7598 16 10.6326 16 10.5V4.5C16 4.10218 15.842 3.72064 15.5607 3.43934C15.2794 3.15804 14.8978 3 14.5 3H3.5C3.10218 3 2.72064 3.15804 2.43934 3.43934C2.15804 3.72064 2 4.10218 2 4.5V12H1.5C1.36739 12 1.24021 12.0527 1.14645 12.1464C1.05268 12.2402 1 12.3674 1 12.5V13.5C1 13.8978 1.15804 14.2794 1.43934 14.5607C1.72064 14.842 2.10218 15 2.5 15H15.5C15.8978 15 16.2794 14.842 16.5607 14.5607C16.842 14.2794 17 13.8978 17 13.5V12.5C17 12.3674 16.9473 12.2402 16.8536 12.1464C16.7598 12.0527 16.6326 12 16.5 12Z" fill="currentColor"/>
</svg>
