<svg viewBox="0 0 18 18" fill="none" xmlns="http://www.w3.org/2000/svg">
<path d="M14.2451 2.25004C14.0348 2.01465 13.7774 1.82623 13.4896 1.69701C13.2018 1.56779 12.89 1.50068 12.5746 1.50004H5.42799C5.11086 1.49811 4.79691 1.56341 4.50678 1.69163C4.21666 1.81985 3.95692 2.0081 3.74465 2.24399C3.53238 2.47989 3.37238 2.75809 3.27517 3.06032C3.17796 3.36255 3.14574 3.68195 3.18063 3.99753L4.34926 14.4975C4.41036 15.0503 4.67386 15.5609 5.08888 15.9307C5.5039 16.3005 6.04104 16.5033 6.59662 16.5H11.406C11.9615 16.5033 12.4987 16.3005 12.9137 15.9307C13.3287 15.5609 13.5922 15.0503 13.6533 14.4975L14.8219 3.99753C14.8543 3.682 14.8196 3.3632 14.7202 3.06203C14.6207 2.76087 14.4589 2.48416 14.2451 2.25004ZM12.1476 14.3325C12.1272 14.5168 12.0394 14.687 11.901 14.8102C11.7627 14.9335 11.5837 15.0011 11.3985 15H6.59662C6.41142 15.0011 6.23238 14.9335 6.09404 14.8102C5.9557 14.687 5.86787 14.5168 5.8475 14.3325L5.09089 7.50001H12.9117L12.1476 14.3325ZM13.0765 6.00002H4.92608L4.68636 3.83253C4.67457 3.72731 4.68516 3.62078 4.71743 3.51995C4.74971 3.41912 4.80295 3.32628 4.87364 3.24753C4.94368 3.16984 5.02919 3.10768 5.12466 3.06505C5.22013 3.02243 5.32346 3.00028 5.42799 3.00003H12.5746C12.6791 3.00028 12.7824 3.02243 12.8779 3.06505C12.9734 3.10768 13.0589 3.16984 13.1289 3.24753C13.1996 3.32628 13.2529 3.41912 13.2851 3.51995C13.3174 3.62078 13.328 3.72731 13.3162 3.83253L13.0765 6.00002ZM10.4995 13.5C10.6982 13.5 10.8887 13.421 11.0292 13.2803C11.1697 13.1397 11.2486 12.9489 11.2486 12.75V9.75C11.2486 9.55108 11.1697 9.36032 11.0292 9.21967C10.8887 9.07902 10.6982 9 10.4995 9C10.3008 9 10.1103 9.07902 9.96982 9.21967C9.82933 9.36032 9.75041 9.55108 9.75041 9.75V12.75C9.75041 12.9489 9.82933 13.1397 9.96982 13.2803C10.1103 13.421 10.3008 13.5 10.4995 13.5ZM7.50305 13.5C7.70173 13.5 7.89227 13.421 8.03276 13.2803C8.17324 13.1397 8.25217 12.9489 8.25217 12.75V9.75C8.25217 9.55108 8.17324 9.36032 8.03276 9.21967C7.89227 9.07902 7.70173 9 7.50305 9C7.30437 9 7.11383 9.07902 6.97334 9.21967C6.83286 9.36032 6.75393 9.55108 6.75393 9.75V12.75C6.75393 12.9489 6.83286 13.1397 6.97334 13.2803C7.11383 13.421 7.30437 13.5 7.50305 13.5Z" fill="currentColor"/>
</svg>
