<svg viewBox="0 0 18 18" fill="none" xmlns="http://www.w3.org/2000/svg">
<path d="M14.4004 5.25H13.629V4.5C13.629 3.90326 13.3852 3.33097 12.9512 2.90901C12.5171 2.48705 11.9285 2.25 11.3147 2.25H3.60042C2.98663 2.25 2.39798 2.48705 1.96397 2.90901C1.52996 3.33097 1.28613 3.90326 1.28613 4.5V4.5V13.5C1.28613 14.0967 1.52996 14.669 1.96397 15.091C2.39798 15.5129 2.98663 15.75 3.60042 15.75H14.4004C15.0142 15.75 15.6029 15.5129 16.0369 15.091C16.4709 14.669 16.7147 14.0967 16.7147 13.5V7.5C16.7147 6.90326 16.4709 6.33097 16.0369 5.90901C15.6029 5.48705 15.0142 5.25 14.4004 5.25ZM3.60042 3.75H11.3147C11.5193 3.75 11.7155 3.82902 11.8602 3.96967C12.0049 4.11032 12.0861 4.30109 12.0861 4.5V5.25H3.60042C3.39582 5.25 3.19961 5.17098 3.05494 5.03033C2.91027 4.88968 2.82899 4.69891 2.82899 4.5C2.82899 4.30109 2.91027 4.11032 3.05494 3.96967C3.19961 3.82902 3.39582 3.75 3.60042 3.75V3.75ZM15.1718 11.25H14.4004C14.1958 11.25 13.9996 11.171 13.8549 11.0303C13.7103 10.8897 13.629 10.6989 13.629 10.5C13.629 10.3011 13.7103 10.1103 13.8549 9.96967C13.9996 9.82902 14.1958 9.75 14.4004 9.75H15.1718V11.25ZM15.1718 8.25H14.4004C13.7866 8.25 13.198 8.48705 12.764 8.90901C12.33 9.33097 12.0861 9.90326 12.0861 10.5C12.0861 11.0967 12.33 11.669 12.764 12.091C13.198 12.5129 13.7866 12.75 14.4004 12.75H15.1718V13.5C15.1718 13.6989 15.0906 13.8897 14.9459 14.0303C14.8012 14.171 14.605 14.25 14.4004 14.25H3.60042C3.39582 14.25 3.19961 14.171 3.05494 14.0303C2.91027 13.8897 2.82899 13.6989 2.82899 13.5V6.6225C3.07682 6.70726 3.3377 6.75038 3.60042 6.75H14.4004C14.605 6.75 14.8012 6.82902 14.9459 6.96967C15.0906 7.11032 15.1718 7.30109 15.1718 7.5V8.25Z" fill="currentColor"/>
</svg>
