<svg width="91" height="38" viewBox="0 0 91 38" fill="none" xmlns="http://www.w3.org/2000/svg">
<path d="M25.4146 24.3094C25.2091 24.6778 24.9706 25.1676 24.7591 25.5328C24.4414 26.0822 24.1133 26.6229 23.795 27.175C23.0684 28.4287 22.3478 29.6877 21.6208 30.9424C20.722 32.4947 19.863 34.0727 18.9048 35.5879C18.0834 36.8862 16.8614 37.6438 15.3243 37.9202C13.0537 38.329 10.7159 37.1386 9.62311 35.1001C8.9467 33.8388 8.19563 32.6174 7.47943 31.3779C6.38606 29.4866 5.29269 27.5953 4.19932 25.704C3.35231 24.246 2.48078 22.8021 1.64413 21.3381C1.09196 20.3573 0.649537 19.3222 0.369538 18.2321C0.347499 18.1822 0.346215 18.1229 0.342285 18.0685C0.413687 17.4439 0.500066 16.812 0.574738 16.1879C0.584549 16.1073 0.585094 16.0244 0.6009 15.9448C0.698464 15.4423 0.780222 14.9354 0.905038 14.4394C1.02985 13.9434 1.15903 13.4425 1.35525 12.97C1.80982 11.8635 2.46279 10.8797 3.38992 10.1123C3.89016 9.69784 4.4588 9.37377 5.07031 9.15461C6.03559 8.80523 7.01723 8.71475 8.02557 8.7589C8.05629 8.76363 8.08655 8.77092 8.11605 8.7807C7.89203 9.43476 8.22506 9.9651 8.53628 10.4769C9.38929 11.8799 10.45 13.1204 11.6104 14.2781C11.8284 14.4961 12.0366 14.7256 12.2595 14.9392C12.3822 15.057 12.3952 15.173 12.3456 15.3289C11.9641 16.5422 11.7286 17.7877 11.5738 19.0473C11.5232 19.4582 11.5646 19.8796 11.5499 20.296C11.5411 20.5462 11.5068 20.7958 11.4834 21.0454C11.4701 21.107 11.4643 21.1699 11.4659 21.2329C11.5286 21.6319 11.5897 22.0314 11.667 22.4277C11.763 22.9209 11.8333 23.4246 11.9897 23.8993C12.196 24.5421 12.5212 25.1404 12.9485 25.6631C13.1093 25.8566 13.2422 26.079 13.4276 26.2441C14.0489 26.7995 14.7357 27.2563 15.5571 27.4568C16.0509 27.5767 16.5545 27.6563 17.0451 27.7839C17.7787 27.9779 18.5281 27.9065 19.2574 27.8591C20.2728 27.7953 21.2817 27.5773 22.168 27.0322C22.6572 26.7314 23.114 26.3765 23.5469 25.999C24.0516 25.5575 24.5084 25.0679 24.9913 24.6002C25.0873 24.507 25.2219 24.4536 25.3385 24.3822L25.4146 24.3094Z" fill="url(#paint0_linear_230_2521)"/>
<path d="M0.341574 18.0684C-0.0368154 16.404 -0.0813086 14.5229 0.112366 12.827C0.332683 10.9132 0.939415 9.06408 1.89577 7.39178C3.17991 5.1211 4.96004 3.33116 7.20456 2.00342C8.68279 1.12926 10.3065 0.528644 11.9977 0.230368C13.1232 0.0199654 14.2708 -0.0467003 15.413 0.0319698C19.4889 0.342103 22.8895 2.01704 25.5733 5.10093C26.1003 5.70757 26.5587 6.3818 26.9904 7.06311C27.5355 7.92484 27.7191 8.91628 27.7895 9.91536C27.9933 12.8194 26.1816 15.1108 23.7506 16.0668C22.3073 16.6342 20.845 16.7367 19.3564 16.3273C18.6074 16.1274 17.923 15.7366 17.3703 15.1931C17.0978 14.9249 17.095 14.8235 17.4063 14.5935C18.0254 14.1335 18.6561 13.6893 19.2812 13.2374C19.8103 12.8545 20.3386 12.4702 20.8662 12.0847C21.087 11.9211 21.0973 11.6933 20.8804 11.52C20.7841 11.4368 20.6675 11.3804 20.5425 11.3565C20.0121 11.2916 19.4813 11.2513 18.9564 11.4192C17.7028 11.8187 16.453 12.216 15.1955 12.5959C15.0865 12.6292 14.9034 12.5687 14.8096 12.4869C14.1141 11.8874 13.4546 11.2496 12.7423 10.6746C11.826 9.93498 10.8973 9.20298 9.7216 8.89121C9.28509 8.76943 8.82853 8.7368 8.37914 8.79528C7.95945 8.84979 7.52777 8.83126 7.10154 8.82635C6.46928 8.81926 5.87191 8.99368 5.27726 9.16919C4.18498 9.49295 3.33852 10.1901 2.61851 11.036C1.9703 11.8053 1.48536 12.6983 1.1932 13.6609C0.989352 14.3123 0.824202 14.9778 0.683579 15.6455C0.568573 16.1905 0.503712 16.7481 0.441031 17.303C0.418684 17.4954 0.423332 17.5506 0.396079 17.7959L0.341574 18.0684Z" fill="url(#paint1_linear_230_2521)"/>
<path d="M11.5144 20.7661C11.6142 20.9084 11.7028 21.0907 11.8227 21.2205C12.0603 21.4777 12.2723 21.4417 12.45 21.1436C12.8381 20.4895 13.2267 19.8398 13.6235 19.1934C13.8889 18.7612 14.1642 18.335 14.4438 17.912C14.6073 17.6607 14.688 17.658 14.9153 17.8499C15.5252 18.3638 16.1144 18.9034 16.751 19.3842C18.2134 20.4901 19.7793 21.4243 21.6161 21.7279C22.442 21.8681 23.288 21.8352 24.1005 21.6314C25.4887 21.2766 26.6437 20.5195 27.7071 19.594C27.7681 19.5395 27.8387 19.5125 27.9022 19.449C27.9657 19.3855 27.9477 19.4035 27.9477 19.4035V19.4853C27.9204 19.6215 27.8956 19.7892 27.8275 19.9183C27.3778 20.7741 26.9249 21.6276 26.4649 22.4757C26.132 23.0858 25.7686 23.712 25.4132 24.309C25.3533 24.4104 25.2396 24.4499 25.1355 24.5202C24.9774 24.6292 24.1178 25.4808 24.1178 25.4808C24.1178 25.4808 23.8378 25.7681 23.351 26.1831C22.8642 26.5982 22.7824 26.6254 22.4554 26.8707C21.7605 27.4207 20.9315 27.6728 20.0916 27.8717C19.7357 27.9556 19.3618 27.9725 18.9944 27.9922C18.6271 28.0118 18.2679 27.9998 17.9043 27.9976C16.9777 27.9932 16.0942 27.8052 15.2178 27.5125C14.4389 27.2525 13.757 26.8366 13.212 26.2534C12.4367 25.4377 11.9054 24.4211 11.6782 23.3189C11.5763 22.8196 11.5144 22.374 11.4327 21.8017C11.4054 21.4475 11.3662 21.0954 11.5144 20.7661Z" fill="url(#paint2_linear_230_2521)"/>
<path d="M45.2549 26.5H42.2275V14.7422H38.3506V12.2227H49.1318V14.7422H45.2549V26.5ZM57.1885 15.377C57.3382 15.377 57.5107 15.3867 57.7061 15.4062C57.9079 15.4193 58.0706 15.4388 58.1943 15.4648L57.9697 18.2578C57.8721 18.2253 57.7321 18.2025 57.5498 18.1895C57.374 18.1699 57.221 18.1602 57.0908 18.1602C56.7067 18.1602 56.3324 18.209 55.9678 18.3066C55.6097 18.4043 55.2874 18.5638 55.001 18.7852C54.7145 19 54.4867 19.2865 54.3174 19.6445C54.1546 19.9961 54.0732 20.429 54.0732 20.9434V26.5H51.0947V15.582H53.3506L53.79 17.418H53.9365C54.1514 17.0469 54.4183 16.7083 54.7373 16.4023C55.0628 16.0898 55.4307 15.8424 55.8408 15.6602C56.2575 15.4714 56.7067 15.377 57.1885 15.377ZM63.1553 15.582V26.5H60.1768V15.582H63.1553ZM61.6709 11.3047C62.1136 11.3047 62.4945 11.4089 62.8135 11.6172C63.1325 11.819 63.292 12.1999 63.292 12.7598C63.292 13.3132 63.1325 13.6973 62.8135 13.9121C62.4945 14.1204 62.1136 14.2246 61.6709 14.2246C61.2217 14.2246 60.8376 14.1204 60.5186 13.9121C60.2061 13.6973 60.0498 13.3132 60.0498 12.7598C60.0498 12.1999 60.2061 11.819 60.5186 11.6172C60.8376 11.4089 61.2217 11.3047 61.6709 11.3047ZM72.3643 15.377C73.5947 15.377 74.5876 15.8555 75.3428 16.8125C76.1045 17.7695 76.4854 19.1725 76.4854 21.0215C76.4854 22.2585 76.3063 23.3001 75.9482 24.1465C75.5902 24.9863 75.0954 25.6211 74.4639 26.0508C73.8324 26.4805 73.1064 26.6953 72.2861 26.6953C71.7588 26.6953 71.3063 26.6302 70.9287 26.5C70.5511 26.3633 70.2288 26.1908 69.9619 25.9824C69.695 25.7676 69.4639 25.5397 69.2686 25.2988H69.1123C69.1644 25.5592 69.2035 25.8262 69.2295 26.0996C69.2555 26.373 69.2686 26.64 69.2686 26.9004V31.3047H66.29V15.582H68.7119L69.1318 16.998H69.2686C69.4639 16.7051 69.7015 16.4349 69.9814 16.1875C70.2614 15.9401 70.5967 15.7448 70.9873 15.6016C71.3844 15.4518 71.8434 15.377 72.3643 15.377ZM71.4072 17.7598C70.8864 17.7598 70.473 17.8672 70.167 18.082C69.861 18.2969 69.6364 18.6191 69.4932 19.0488C69.3564 19.4785 69.2816 20.0221 69.2686 20.6797V21.002C69.2686 21.7051 69.3337 22.3008 69.4639 22.7891C69.6006 23.2773 69.8252 23.6484 70.1377 23.9023C70.4567 24.1562 70.8929 24.2832 71.4463 24.2832C71.902 24.2832 72.2764 24.1562 72.5693 23.9023C72.8623 23.6484 73.0804 23.2773 73.2236 22.7891C73.3734 22.2943 73.4482 21.6921 73.4482 20.9824C73.4482 19.9147 73.2822 19.1107 72.9502 18.5703C72.6182 18.0299 72.1038 17.7598 71.4072 17.7598ZM90.7236 26.5H87.2666L83.9463 21.0996L80.626 26.5H77.3838L82.1201 19.1367L77.6865 12.2227H81.0264L84.1025 17.3594L87.1201 12.2227H90.3818L85.8994 19.3027L90.7236 26.5Z" fill="#222529"/>
<defs>
<linearGradient id="paint0_linear_230_2521" x1="3.03525" y1="10.6644" x2="20.0287" y2="33.5534" gradientUnits="userSpaceOnUse">
<stop stop-color="#8013DE"/>
<stop offset="1" stop-color="#0EEBFD"/>
</linearGradient>
<linearGradient id="paint1_linear_230_2521" x1="28.0973" y1="8.7208" x2="-1.78116e-07" y2="9.04783" gradientUnits="userSpaceOnUse">
<stop stop-color="#8013DE"/>
<stop offset="1" stop-color="#0EEBFD"/>
</linearGradient>
<linearGradient id="paint2_linear_230_2521" x1="18.1491" y1="30.1109" x2="19.7186" y2="21.0427" gradientUnits="userSpaceOnUse">
<stop offset="0.04" stop-color="#8013DE"/>
<stop offset="1" stop-color="#0EEBFD"/>
</linearGradient>
</defs>
</svg>
