<svg width="241" height="327" viewBox="0 0 241 327" fill="none" xmlns="http://www.w3.org/2000/svg">
<path d="M218.985 209.095C217.217 212.264 215.166 216.477 213.347 219.618C210.614 224.344 207.791 228.995 205.053 233.744C198.804 244.527 192.606 255.357 186.352 266.149C178.621 279.501 171.233 293.074 162.991 306.107C155.926 317.274 145.415 323.791 132.194 326.168C112.663 329.684 92.5548 319.445 83.1549 301.911C77.3368 291.062 70.8764 280.556 64.7161 269.895C55.3115 253.627 45.9069 237.359 36.5023 221.09C29.2168 208.549 21.7203 196.13 14.5239 183.538C9.77447 175.101 5.96899 166.198 3.56058 156.821C3.37102 156.392 3.35997 155.882 3.32617 155.415C3.94033 150.042 4.68332 144.607 5.32561 139.239C5.40999 138.545 5.41468 137.832 5.55064 137.148C6.38983 132.825 7.09307 128.465 8.16667 124.199C9.24027 119.933 10.3514 115.624 12.0391 111.559C15.9491 102.042 21.5656 93.5801 29.5403 86.9791C33.8431 83.4144 38.7342 80.627 43.9941 78.7418C52.297 75.7367 60.7405 74.9584 69.4137 75.3382C69.6779 75.3788 69.9382 75.4416 70.1919 75.5257C68.2651 81.1516 71.1296 85.7132 73.8065 90.1155C81.1436 102.183 90.2669 112.853 100.248 122.811C102.123 124.686 103.914 126.66 105.832 128.498C106.887 129.511 106.999 130.509 106.573 131.85C103.291 142.286 101.265 152.999 99.934 163.833C99.498 167.368 99.8543 170.992 99.7278 174.574C99.6527 176.726 99.3574 178.873 99.1558 181.02C99.042 181.55 98.9916 182.091 99.0058 182.633C99.5449 186.065 100.07 189.501 100.736 192.91C101.561 197.152 102.166 201.484 103.511 205.568C105.285 211.097 108.083 216.243 111.758 220.739C113.141 222.403 114.285 224.316 115.879 225.737C121.223 230.514 127.13 234.443 134.196 236.168C138.443 237.199 142.775 237.884 146.994 238.981C153.305 240.65 159.751 240.036 166.024 239.628C174.758 239.079 183.436 237.204 191.059 232.516C195.267 229.928 199.196 226.875 202.92 223.628C207.261 219.831 211.19 215.619 215.344 211.597C216.169 210.795 217.327 210.336 218.331 209.722L218.985 209.095Z" fill="url(#paint0_linear_20_2742)"/>
<path d="M3.32476 155.415C0.0700523 141.099 -0.312655 124.918 1.35323 110.331C3.24828 93.8695 8.46707 77.9644 16.6931 63.5801C27.7386 44.049 43.0503 28.6528 62.3564 17.2323C75.0714 9.71327 89.0374 4.54711 103.585 1.9815C113.265 0.171732 123.136 -0.401691 132.961 0.274987C168.02 2.94259 197.27 17.3495 220.354 43.8755C224.888 49.0935 228.831 54.8928 232.544 60.7531C237.232 68.1652 238.812 76.6931 239.417 85.2866C241.17 110.265 225.586 129.975 204.677 138.198C192.263 143.078 179.684 143.96 166.88 140.439C160.438 138.72 154.551 135.358 149.797 130.683C147.452 128.376 147.429 127.504 150.106 125.526C155.432 121.569 160.856 117.748 166.233 113.861C170.784 110.567 175.329 107.262 179.867 103.946C181.766 102.539 181.855 100.58 179.989 99.0887C179.16 98.373 178.158 97.8879 177.082 97.6823C172.52 97.1244 167.954 96.7775 163.439 98.2214C152.656 101.658 141.906 105.076 131.091 108.343C130.153 108.629 128.578 108.109 127.771 107.406C121.789 102.249 116.116 96.7634 109.989 91.8173C102.108 85.4554 94.1192 79.1591 84.0067 76.4774C80.2521 75.4299 76.325 75.1493 72.4596 75.6523C68.8496 76.1211 65.1366 75.9617 61.4704 75.9195C56.032 75.8586 50.8937 77.3588 45.7789 78.8684C36.3837 81.6532 29.1029 87.6495 22.9097 94.9256C17.3342 101.542 13.163 109.224 10.65 117.504C8.89659 123.107 7.47606 128.831 6.2665 134.574C5.27728 139.262 4.71938 144.058 4.18023 148.831C3.98802 150.486 4.02799 150.961 3.79358 153.071L3.32476 155.415Z" fill="url(#paint1_linear_20_2742)"/>
<path d="M99.4323 178.621C100.29 179.845 101.052 181.413 102.083 182.529C104.127 184.742 105.951 184.432 107.48 181.868C110.818 176.242 114.16 170.654 117.573 165.093C119.856 161.376 122.224 157.709 124.629 154.071C126.036 151.91 126.729 151.887 128.684 153.537C133.931 157.958 138.999 162.599 144.474 166.734C157.053 176.247 170.522 184.282 186.321 186.894C193.425 188.099 200.702 187.817 207.69 186.064C219.631 183.012 229.566 176.5 238.712 168.539C239.238 168.07 239.845 167.838 240.391 167.292C240.937 166.746 240.782 166.901 240.782 166.901V167.604C240.548 168.776 240.335 170.218 239.749 171.329C235.881 178.689 231.985 186.031 228.028 193.326C225.165 198.574 222.039 203.96 218.982 209.095C218.466 209.967 217.489 210.307 216.593 210.911C215.234 211.849 207.84 219.174 207.84 219.174C207.84 219.174 205.431 221.645 201.244 225.215C197.057 228.785 196.353 229.02 193.541 231.129C187.563 235.86 180.433 238.028 173.209 239.739C170.147 240.461 166.931 240.607 163.771 240.775C160.611 240.944 157.522 240.841 154.395 240.822C146.425 240.785 138.825 239.167 131.286 236.65C124.587 234.414 118.722 230.836 114.034 225.82C107.365 218.803 102.795 210.059 100.841 200.579C99.9643 196.284 99.4323 192.452 98.7291 187.529C98.4947 184.482 98.1571 181.453 99.4323 178.621Z" fill="url(#paint2_linear_20_2742)"/>
<defs>
<linearGradient id="paint0_linear_20_2742" x1="26.4896" y1="91.7279" x2="172.658" y2="288.608" gradientUnits="userSpaceOnUse">
<stop stop-color="#8013DE"/>
<stop offset="1" stop-color="#0EEBFD"/>
</linearGradient>
<linearGradient id="paint1_linear_20_2742" x1="242.065" y1="75.0116" x2="0.386717" y2="77.8246" gradientUnits="userSpaceOnUse">
<stop stop-color="#8013DE"/>
<stop offset="1" stop-color="#0EEBFD"/>
</linearGradient>
<linearGradient id="paint2_linear_20_2742" x1="156.5" y1="259" x2="170" y2="181" gradientUnits="userSpaceOnUse">
<stop offset="0.04" stop-color="#8013DE"/>
<stop offset="1" stop-color="#0EEBFD"/>
</linearGradient>
</defs>
</svg>
