<svg width="24" height="24" viewBox="0 0 24 24" fill="none" xmlns="http://www.w3.org/2000/svg">
<path d="M17.8445 10.4564L17.8598 10.4587L17.8753 10.4601C17.8991 10.4622 17.9243 10.4717 17.9475 10.4906C17.9672 10.5067 17.985 10.5294 17.9972 10.5578C18.0024 10.5893 18.0004 10.6219 17.9913 10.6522C17.9805 10.6881 17.9612 10.7169 17.9386 10.7369L17.9262 10.748L17.9144 10.7599L15.2336 13.4789L15.0542 13.6609L15.0965 13.9129L15.7457 17.774L15.7456 17.774L15.7468 17.7805C15.7537 17.8185 15.7499 17.8576 15.7367 17.8923C15.7235 17.9268 15.7024 17.9534 15.679 17.9709L15.677 17.9724C15.6515 17.9917 15.6238 18.0001 15.598 18L15.5944 18C15.5809 18 15.5664 17.9965 15.5519 17.9879L15.5453 17.9841L15.5386 17.9804L12.2281 16.1586L11.9879 16.0264L11.7474 16.1578L8.42391 17.9728L8.4239 17.9728L8.42084 17.9745C8.3979 17.9872 8.37394 17.9921 8.35113 17.9905C8.3284 17.9889 8.30441 17.9807 8.28203 17.9641C8.25869 17.9466 8.2376 17.9201 8.22439 17.8855C8.21114 17.8508 8.20736 17.8117 8.21427 17.7737L8.21431 17.7737L8.21542 17.7672L8.86453 13.9061L8.90689 13.6541L8.7275 13.4721L6.05015 10.7566C6.0301 10.735 6.01392 10.706 6.00571 10.6717C5.99762 10.6378 5.99816 10.6021 6.0071 10.5687C6.01825 10.5355 6.03681 10.5088 6.05822 10.49C6.08033 10.4705 6.10464 10.4601 6.12772 10.4566L6.12772 10.4566L6.1305 10.4562L9.82397 9.88521L10.0864 9.84463L10.1998 9.60446L11.855 6.09685L11.855 6.09686L11.8566 6.09335C11.8716 6.06099 11.8934 6.03705 11.9167 6.02179C11.9397 6.0067 11.964 6 11.987 6C12.0101 6 12.0344 6.0067 12.0574 6.02179C12.0806 6.03705 12.1025 6.06099 12.1174 6.09335L12.1174 6.09335L12.1189 6.09651L13.7741 9.61092L13.8876 9.85192L14.151 9.89214L17.8445 10.4564ZM14.8419 13.4879L14.842 13.4879L14.8472 13.4825L16.7945 11.45L17.4611 10.7543L16.5085 10.6098L13.7757 10.1951L13.7757 10.1951L13.7728 10.1947C13.7525 10.1917 13.7314 10.1834 13.7116 10.1684C13.6916 10.1532 13.6733 10.1315 13.6601 10.1034L13.6599 10.1029L12.4395 7.50618L11.9752 6.51811L11.5304 7.51513L10.3774 10.0995C10.3644 10.1262 10.3467 10.147 10.3274 10.1616C10.3076 10.1766 10.2865 10.1849 10.2662 10.1879L10.2662 10.1879L10.2633 10.1883L7.53048 10.603L6.57984 10.7472L7.24388 11.4426L9.19123 13.4819L9.19118 13.482L9.19703 13.4879C9.21588 13.507 9.23177 13.5325 9.24131 13.5632C9.25087 13.5939 9.25323 13.6272 9.24783 13.6598L9.24769 13.6606L8.78032 16.5089L8.6127 17.5304L9.51704 17.0266L11.9577 15.6671L11.9579 15.667C11.9782 15.6557 11.9993 15.6505 12.0195 15.6505C12.0397 15.6505 12.0608 15.6557 12.0811 15.667L12.0813 15.6671L14.5219 17.0266L15.4263 17.5304L15.2587 16.5089L14.7913 13.6606L14.7911 13.6598C14.7857 13.6272 14.7881 13.5939 14.7977 13.5632C14.8072 13.5325 14.8231 13.507 14.8419 13.4879Z" fill="white" stroke="white"/>
<circle cx="12" cy="12" r="11" stroke="white" stroke-width="2"/>
</svg>
