<svg width="64" height="63" viewBox="0 0 64 63" fill="none" xmlns="http://www.w3.org/2000/svg">
<path d="M46.965 34.5663C46.3337 34.5663 45.7283 34.8172 45.2819 35.2639C44.8355 35.7105 44.5847 36.3162 44.5847 36.9479V37.8528L41.0619 34.3282C39.818 33.0935 38.1368 32.4006 36.3846 32.4006C34.6324 32.4006 32.9512 33.0935 31.7073 34.3282L30.0411 35.9953L24.138 30.0891C22.8767 28.8879 21.2021 28.2179 19.4607 28.2179C17.7194 28.2179 16.0447 28.8879 14.7834 30.0891L11.2606 33.6137V20.2772C11.2606 19.6456 11.5114 19.0399 11.9578 18.5932C12.4042 18.1466 13.0096 17.8957 13.6409 17.8957H30.303C30.9342 17.8957 31.5397 17.6448 31.9861 17.1982C32.4325 16.7516 32.6832 16.1458 32.6832 15.5142C32.6832 14.8826 32.4325 14.2768 31.9861 13.8302C31.5397 13.3836 30.9342 13.1327 30.303 13.1327H13.6409C11.747 13.1327 9.93069 13.8854 8.59152 15.2253C7.25234 16.5651 6.5 18.3824 6.5 20.2772V48.8554C6.5 50.7503 7.25234 52.5675 8.59152 53.9074C9.93069 55.2473 11.747 56 13.6409 56H42.2044C44.0983 56 45.9146 55.2473 47.2538 53.9074C48.593 52.5675 49.3453 50.7503 49.3453 48.8554V36.9479C49.3453 36.3162 49.0945 35.7105 48.6481 35.2639C48.2017 34.8172 47.5963 34.5663 46.965 34.5663ZM13.6409 51.237C13.0096 51.237 12.4042 50.9861 11.9578 50.5394C11.5114 50.0928 11.2606 49.4871 11.2606 48.8554V40.3534L18.1634 33.447C18.5131 33.1136 18.9777 32.9276 19.4607 32.9276C19.9438 32.9276 20.4083 33.1136 20.758 33.447L28.3035 40.9964L38.5388 51.237H13.6409ZM44.5847 48.8554C44.5813 49.3113 44.431 49.754 44.1563 50.1177L33.4211 39.3294L35.0873 37.6623C35.258 37.4881 35.4617 37.3496 35.6865 37.2551C35.9113 37.1606 36.1527 37.1119 36.3965 37.1119C36.6403 37.1119 36.8817 37.1606 37.1065 37.2551C37.3313 37.3496 37.535 37.4881 37.7057 37.6623L44.5847 44.5925V48.8554ZM55.7959 13.8233L48.655 6.67876C48.4286 6.46195 48.1617 6.29199 47.8695 6.17865C47.29 5.94045 46.64 5.94045 46.0605 6.17865C45.7683 6.29199 45.5014 6.46195 45.275 6.67876L38.1341 13.8233C37.9122 14.0454 37.7361 14.309 37.616 14.5991C37.4959 14.8892 37.4341 15.2002 37.4341 15.5142C37.4341 16.1484 37.6859 16.7566 38.1341 17.2051C38.5823 17.6535 39.1903 17.9055 39.8241 17.9055C40.458 17.9055 41.0659 17.6535 41.5141 17.2051L44.5847 14.1091V27.4218C44.5847 28.0534 44.8355 28.6592 45.2819 29.1058C45.7283 29.5524 46.3337 29.8033 46.965 29.8033C47.5963 29.8033 48.2017 29.5524 48.6481 29.1058C49.0945 28.6592 49.3453 28.0534 49.3453 27.4218V14.1091L52.4159 17.2051C52.6372 17.4283 52.9004 17.6055 53.1905 17.7264C53.4806 17.8473 53.7917 17.9095 54.1059 17.9095C54.4201 17.9095 54.7312 17.8473 55.0213 17.7264C55.3114 17.6055 55.5746 17.4283 55.7959 17.2051C56.019 16.9837 56.1961 16.7203 56.3169 16.4301C56.4378 16.1399 56.5 15.8286 56.5 15.5142C56.5 15.1998 56.4378 14.8885 56.3169 14.5983C56.1961 14.3081 56.019 14.0447 55.7959 13.8233V13.8233Z" fill="#539DFF"/>
</svg>
